<svg xmlns="http://www.w3.org/2000/svg" contentScriptType="text/ecmascript" width="48" height="48" version="1.0"><defs><clipPath id="clip-0"><path d="M.488 0h47.02v47.02H.488Zm0 0"/></clipPath><clipPath id="clip-1"><path d="M19 7h22v40.02H19Zm0 0"/></clipPath></defs><g clip-path="url('#clip-0')"><path fill="#3D5A98" d="M44.91 47.016a2.596 2.596 0 0 0 2.598-2.594V2.594A2.596 2.596 0 0 0 44.91 0H3.086A2.596 2.596 0 0 0 .488 2.594v41.828a2.596 2.596 0 0 0 2.598 2.594Zm0 0"/></g><g clip-path="url('#clip-1')"><path fill="#FFF" d="M32.93 47.016V28.809h6.113l.914-7.094H32.93v-4.531c0-2.055.57-3.454 3.515-3.454l3.758-.003V7.379c-.648-.086-2.879-.277-5.473-.277-5.417 0-9.128 3.304-9.128 9.378v5.235h-6.125v7.094h6.125v18.207Zm0 0"/></g></svg>