<svg xmlns="http://www.w3.org/2000/svg" contentScriptType="text/ecmascript" width="48" height="48" version="1.0"><defs><clipPath id="clip-0"><path d="M.488 0h47.02v47.02H.488Zm0 0"/></clipPath></defs><g clip-path="url('#clip-0')"><path fill="#0077B5" d="M7.543 0h32.914c.465 0 .922.047 1.375.137.457.09.895.222 1.324.398a7.017 7.017 0 0 1 2.29 1.531c.327.329.617.684.874 1.067.258.387.477.793.653 1.222.18.426.312.868.402 1.32.09.458.137.915.137 1.38v32.914a7.075 7.075 0 0 1-2.067 4.984 7.017 7.017 0 0 1-4.988 2.066H7.543c-.465 0-.922-.042-1.375-.132a7.017 7.017 0 0 1-3.613-1.934 7.035 7.035 0 0 1-1.93-3.61 7.075 7.075 0 0 1-.137-1.374V7.055c0-.465.047-.922.137-1.38a6.78 6.78 0 0 1 .402-1.32 6.93 6.93 0 0 1 .653-1.222 7.003 7.003 0 0 1 1.945-1.945c.383-.258.79-.473 1.219-.653.43-.176.867-.308 1.324-.398C6.621.047 7.078 0 7.543 0Zm0 0"/></g><path fill="#FFF" d="M16.93 12.672c0 .453-.086.887-.262 1.3a3.399 3.399 0 0 1-.734 1.106 3.389 3.389 0 0 1-2.402.992c-.454 0-.884-.086-1.302-.258a3.342 3.342 0 0 1-1.101-.734 3.349 3.349 0 0 1-.738-1.105 3.36 3.36 0 0 1-.258-1.301c0-.45.086-.883.258-1.297.171-.418.418-.785.738-1.105a3.342 3.342 0 0 1 1.101-.735 3.374 3.374 0 0 1 1.301-.258 3.389 3.389 0 0 1 3.137 2.098c.176.414.262.848.262 1.297Zm0 0"/><path fill="#FFF" d="M22.898 17.816V36m-9.367-18.184V36" stroke="#FFF" stroke-width="6.06144"/><path fill="#FFF" d="M25.836 25.898c0-1.835 1.195-3.675 3.309-3.675 2.203 0 3.027 1.656 3.027 4.132V36h6.062V25.621c0-5.601-2.937-8.172-6.98-8.172-3.121 0-4.684 1.746-5.418 2.938"/></svg>